FILE "Thinking Statistically [B072F5LM3D].m4b" MP3
TRACK 1 AUDIO
  TITLE "Opening Credits"
  INDEX 01 0:00:00
TRACK 2 AUDIO
  TITLE "Chapter 1"
  INDEX 01 0:08:72
TRACK 3 AUDIO
  TITLE "Chapter 2"
  INDEX 01 4:29:19
TRACK 4 AUDIO
  TITLE "Chapter 3"
  INDEX 01 21:34:10
TRACK 5 AUDIO
  TITLE "Chapter 4"
  INDEX 01 57:31:72
TRACK 6 AUDIO
  TITLE "Chapter 5"
  INDEX 01 88:00:16
TRACK 7 AUDIO
  TITLE "End Credits"
  INDEX 01 91:12:11
